<svg id="Layer_1" enable-background="new 0 0 24 24" height="512" viewBox="0 0 24 24" width="512" xmlns="http://www.w3.org/2000/svg" xmlns:xlink="http://www.w3.org/1999/xlink"><linearGradient id="SVGID_1_" gradientUnits="userSpaceOnUse" x1="2" x2="22" y1="12" y2="12"><stop offset="0" stop-color="#ee0979"/><stop offset="1" stop-color="#ff6a00"/></linearGradient><path d="m3 10.5h14c.6 0 1-.4 1-1s-.4-1-1-1h-14c-.6 0-1 .4-1 1s.4 1 1 1zm0-5h18c.6 0 1-.4 1-1s-.4-1-1-1h-18c-.6 0-1 .4-1 1s.4 1 1 1zm18 8h-18c-.6 0-1 .4-1 1s.4 1 1 1h18c.6 0 1-.4 1-1s-.4-1-1-1zm-4 5h-14c-.6 0-1 .4-1 1s.4 1 1 1h14c.6 0 1-.4 1-1s-.4-1-1-1z" fill="url(#SVGID_1_)"/></svg>