<svg id="Layer_1" enable-background="new 0 0 24 24" height="512" viewBox="0 0 24 24" width="512" xmlns="http://www.w3.org/2000/svg" xmlns:xlink="http://www.w3.org/1999/xlink"><linearGradient id="SVGID_1_" gradientUnits="userSpaceOnUse" x1="1" x2="23" y1="12" y2="12"><stop offset="0" stop-color="#ee0979"/><stop offset="1" stop-color="#ff6a00"/></linearGradient><path d="m19.8 4.2c-2.1-2.1-4.9-3.2-7.8-3.2s-5.7 1.1-7.8 3.2-3.2 4.9-3.2 7.8 1.1 5.7 3.2 7.8 4.9 3.2 7.8 3.2 5.7-1.1 7.8-3.2 3.2-4.9 3.2-7.8-1.1-5.7-3.2-7.8zm-1.4 14.2c-1.7 1.7-4 2.6-6.4 2.6s-4.7-.9-6.4-2.6c-1.7-1.7-2.6-4-2.6-6.4s.9-4.7 2.6-6.4 4-2.6 6.4-2.6 4.7.9 6.4 2.6 2.6 4 2.6 6.4-.9 4.7-2.6 6.4zm-2.1-10.1-5.3 5.3-2.3-2.3c-.4-.4-1-.4-1.4 0s-.4 1 0 1.4l3 3c.2.2.5.3.7.3s.5-.1.7-.3l6-6c.4-.4.4-1 0-1.4s-1-.4-1.4 0z" fill="url(#SVGID_1_)"/></svg>