<?xml version="1.0" encoding="UTF-8" standalone="no"?>
<!-- Created with Inkscape (http://www.inkscape.org/) -->

<svg
   version="1.1"
   id="svg861"
   xml:space="preserve"
   width="682.66669"
   height="682.66669"
   viewBox="0 0 682.66669 682.66669"
   xmlns="http://www.w3.org/2000/svg"
   xmlns:svg="http://www.w3.org/2000/svg"><defs
     id="defs865"><clipPath
       clipPathUnits="userSpaceOnUse"
       id="clipPath875"><path
         d="M 0,512 H 512 V 0 H 0 Z"
         id="path873" /></clipPath></defs><g
     id="g867"
     transform="matrix(1.3333333,0,0,-1.3333333,0,682.66667)"><g
       id="g869"><g
         id="g871"
         clip-path="url(#clipPath875)"><g
           id="g877"
           transform="translate(344.1807,360.2097)"><path
             d="m 0,0 h 96.19 c 13.282,0 24.049,-10.767 24.049,-24.048 v -280.565"
             style="fill:none;stroke:#000000;stroke-width:15;stroke-linecap:round;stroke-linejoin:round;stroke-miterlimit:10;stroke-dasharray:none;stroke-opacity:1"
             id="path879" /></g><g
           id="g881"
           transform="translate(47.5806,55.5967)"><path
             d="m 0,0 v 280.565 c 0,13.281 10.767,24.048 24.048,24.048 h 96.194"
             style="fill:none;stroke:#000000;stroke-width:15;stroke-linecap:round;stroke-linejoin:round;stroke-miterlimit:10;stroke-dasharray:none;stroke-opacity:1"
             id="path883" /></g><g
           id="g885"
           transform="translate(143.7773,55.5967)"><path
             d="m 0,0 h 360.723 v -16.032 c 0,-8.855 -7.178,-16.032 -16.033,-16.032 h -464.935 c -8.855,0 -16.032,7.177 -16.032,16.032 V 0 h 104.206"
             style="fill:none;stroke:#000000;stroke-width:15;stroke-linecap:round;stroke-linejoin:round;stroke-miterlimit:10;stroke-dasharray:none;stroke-opacity:1"
             id="path887" /></g><g
           id="g889"
           transform="translate(281.8979,247.9839)"><path
             d="m 0,0 c 19.01,29.685 30.215,65.506 30.215,104.21 0,53.963 -21.695,102.389 -56.113,136.274 -34.417,-33.885 -56.113,-82.311 -56.113,-136.274 0,-38.704 11.205,-74.525 30.215,-104.21 z"
             style="fill:none;stroke:#000000;stroke-width:15;stroke-linecap:round;stroke-linejoin:round;stroke-miterlimit:10;stroke-dasharray:none;stroke-opacity:1"
             id="path891" /></g><g
           id="g893"
           transform="translate(288.0645,215.9194)"><path
             d="m 0,0 h -64.129 l 8.016,32.064 h 48.097 z"
             style="fill:none;stroke:#000000;stroke-width:15;stroke-linecap:round;stroke-linejoin:round;stroke-miterlimit:10;stroke-dasharray:none;stroke-opacity:1"
             id="path895" /></g><g
           id="g897"
           transform="translate(199.8872,312.1128)"><path
             d="m 0,0 -34.507,-41.408 c -3.601,-4.322 -5.574,-9.769 -5.574,-15.395 v -23.358 l 57.099,32.218"
             style="fill:none;stroke:#000000;stroke-width:15;stroke-linecap:round;stroke-linejoin:round;stroke-miterlimit:10;stroke-dasharray:none;stroke-opacity:1"
             id="path899" /></g><g
           id="g901"
           transform="translate(312.1128,312.1128)"><path
             d="m 0,0 34.507,-41.408 c 3.601,-4.322 5.574,-9.769 5.574,-15.395 v -23.358 l -57.099,32.218"
             style="fill:none;stroke:#000000;stroke-width:15;stroke-linecap:round;stroke-linejoin:round;stroke-miterlimit:10;stroke-dasharray:none;stroke-opacity:1"
             id="path903" /></g><g
           id="g905"
           transform="translate(215.9194,424.3386)"><path
             d="M 0,0 H 80.161"
             style="fill:none;stroke:#000000;stroke-width:15;stroke-linecap:round;stroke-linejoin:round;stroke-miterlimit:10;stroke-dasharray:none;stroke-opacity:1"
             id="path907" /></g><g
           id="g909"
           transform="translate(421.9844,55.5967)"><path
             d="m 0,0 c 1.514,5.083 2.354,10.457 2.354,16.032 0,30.991 -25.123,56.113 -56.113,56.113 -6.433,0 -12.588,-1.136 -18.344,-3.129 -5.392,15.767 -20.174,27.178 -37.769,27.178 -9.811,0 -18.681,-3.664 -25.648,-9.518 0.946,3.026 1.6,6.18 1.6,9.518 0,17.709 -14.355,32.064 -32.064,32.064 -17.709,0 -32.065,-14.355 -32.065,-32.064 0,-3.338 0.654,-6.492 1.6,-9.518 -6.967,5.854 -15.837,9.518 -25.648,9.518 -17.595,0 -32.377,-11.411 -37.769,-27.178 -5.756,1.993 -11.911,3.129 -18.344,3.129 -30.99,0 -56.113,-25.122 -56.113,-56.113 0,-5.575 0.841,-10.949 2.354,-16.032"
             style="fill:none;stroke:#000000;stroke-width:15;stroke-linecap:round;stroke-linejoin:round;stroke-miterlimit:10;stroke-dasharray:none;stroke-opacity:1"
             id="path911" /></g><g
           id="g913"
           transform="translate(280.0483,360.2097)"><path
             d="m 0,0 c 0,-13.281 -10.767,-24.048 -24.048,-24.048 -13.282,0 -24.049,10.767 -24.049,24.048 0,13.281 10.767,24.048 24.049,24.048 C -10.767,24.048 0,13.281 0,0 Z"
             style="fill:none;stroke:#000000;stroke-width:15;stroke-linecap:round;stroke-linejoin:round;stroke-miterlimit:10;stroke-dasharray:none;stroke-opacity:1"
             id="path915" /></g></g></g></g></svg>
