<svg id="Flat_gradient" height="512" viewBox="0 0 64 64" width="512" xmlns="http://www.w3.org/2000/svg" xmlns:xlink="http://www.w3.org/1999/xlink" data-name="Flat gradient"><linearGradient id="linear-gradient" gradientUnits="userSpaceOnUse" x1="4.001" x2="60.001" y1="31.999" y2="31.999"><stop offset="0" stop-color="#ffa68d"/><stop offset="1" stop-color="#fd3a84"/></linearGradient><path d="m59.993 23.76737c.00188 12.37157-10.88476 28.24851-11.34862 28.91791a1.9306 1.9306 0 0 1 -3.17538-2.19675c.10654-.15462 10.66414-15.56016 10.66414-26.79847.01037-.35544.16122-7.09748-5.58333-8.91994a9.45772 9.45772 0 0 0 -6.35738.263 8.71624 8.71624 0 0 0 -5.4551 5.919 9.69791 9.69791 0 0 0 -.26022 3.79576c.52609 4.27093 2.94723 6.7477 7.19554 7.36052a1.93081 1.93081 0 0 1 -.55061 3.82216 11.64933 11.64933 0 0 1 -10.47838-10.71126 13.43706 13.43706 0 0 1 .37807-5.3193 12.61 12.61 0 0 1 7.73671-8.45325 13.33363 13.33363 0 0 1 8.95859-.35732c6.85989 2.17597 8.41365 9.24422 8.27597 12.67794zm-38.80942-12.678a13.33917 13.33917 0 0 0 -8.95859.35732 12.60686 12.60686 0 0 0 -7.73668 8.45331 13.41242 13.41242 0 0 0 -.37807 5.31934 11.64888 11.64888 0 0 0 10.47794 10.71124 1.93087 1.93087 0 0 0 .55154-3.82216c-4.24925-.61282-6.67039-3.08959-7.19695-7.36052a9.71166 9.71166 0 0 1 .26116-3.79576 8.7137 8.7137 0 0 1 5.45464-5.919 9.45956 9.45956 0 0 1 6.35784-.263c5.74408 1.82246 5.5937 8.5645 5.58333 8.91994 0 11.23831-10.559 26.64385-10.66555 26.79847a1.93079 1.93079 0 1 0 3.17586 2.19675c.46339-.6694 11.35145-16.54634 11.35-28.91885.13674-3.4328-1.41705-10.50105-8.27644-12.67706z" fill="url(#linear-gradient)"/></svg>